<svg width="110.51998291015624px" height="38.08001708984375px" xmlns="http://www.w3.org/2000/svg" viewBox="194.74000854492186 55.959991455078125 110.51998291015624 38.08001708984375" style="background: rgba(0, 0, 0, 0) none repeat scroll 0% 0%;" preserveAspectRatio="xMidYMid"><defs><filter id="editing-liquid" width="150%" height="160%" x="-25%" y="-25%"><feFlood flood-color="#6dca20" result="flood-1"></feFlood><feFlood flood-color="rgba(100%,100%,100%,0.34)" result="flood-2"></feFlood><feFlood flood-color="#ff9300" result="flood-3"></feFlood><feTurbulence baseFrequency="0.01" type="fractalNoise" numOctaves="1" seed="4" result="bs-1"></feTurbulence><feGaussianBlur stdDeviation="10" in="SourceAlpha" result="bs-2"></feGaussianBlur><feDisplacementMap scale="420" in="bs-2" in2="bs-1" result="bs-3"></feDisplacementMap><feComposite operator="in" in="flood-1" in2="bs-3" result="bs-4"></feComposite><feTurbulence baseFrequency="0.02" type="fractalNoise" numOctaves="2" seed="5" result="ms-1"></feTurbulence><feGaussianBlur in="SourceAlpha" stdDeviation="0.1" result="ms-2"></feGaussianBlur><feDisplacementMap in="ms-2" in2="ms-1" scale="35" result="ms-3"></feDisplacementMap><feComposite in="flood-3" in2="ms-3" operator="in" result="ms-4"></feComposite><feTurbulence baseFrequency="0.05" type="fractalNoise" numOctaves="1" seed="6" result="ts-1"></feTurbulence><feGaussianBlur stdDeviation="3.5" in="SourceAlpha" result="ts-2"></feGaussianBlur><feDisplacementMap scale="220" in="ts-2" in2="ts-1" result="ts-3"></feDisplacementMap><feComposite operator="in" in="flood-2" in2="ts-3" result="ts-4"></feComposite><feMerge result="le-1"><feMergeNode in="bs-4"></feMergeNode><feMergeNode in="ms-4"></feMergeNode><feMergeNode in="ts-4"></feMergeNode></feMerge><feColorMatrix type="matrix" in="le-1" result="le-2" values="0 0 0 0 0, 0 0 0 0 0, 0 0 0 0 0, 0 0 0 1 0"></feColorMatrix><feGaussianBlur stdDeviation="2" in="le-2" result="le-3"></feGaussianBlur><feSpecularLighting surfaceScale="5" specularConstant=".75" specularExponent="30" lighting-color="#white" in="le-3" result="le-4"><fePointLight x="-50" y="-100" z="400"></fePointLight></feSpecularLighting><feComposite operator="in" in="le-4" in2="le-2" result="le-5"></feComposite><feComposite operator="arithmetic" k1="0" k2="1" k3="1" k4="0" in="le-1" in2="le-5" result="le-6"></feComposite></filter></defs><g filter="url(#editing-liquid)"><g transform="translate(217.55078506469727, 79.65039443969727)"><path d="M5.39-2.07L5.39-2.07L5.39-2.07Q5.65-1.88 5.65-1.48L5.65-1.48L5.65-1.48Q5.65-1.07 5.48-0.79L5.48-0.79L5.48-0.79Q5.30-0.50 4.96-0.28L4.96-0.28L4.96-0.28Q4.23 0.19 2.96 0.19L2.96 0.19L2.96 0.19Q1.68 0.19 0.98-0.48L0.98-0.48L0.98-0.48Q0.29-1.14 0.29-2.32L0.29-2.32L0.29-2.32Q0.29-3.99 1.16-5.26L1.16-5.26L1.16-5.26Q1.82-6.20 3-6.60L3-6.60L3-6.60Q3.61-6.80 4.21-6.80L4.21-6.80L4.21-6.80Q4.81-6.80 5.18-6.72L5.18-6.72L5.18-6.72Q5.55-6.64 5.83-6.48L5.83-6.48L5.83-6.48Q6.44-6.13 6.44-5.57L6.44-5.57L6.44-5.57Q6.44-5.06 5.96-4.68L5.96-4.68L5.96-4.68Q5.52-4.34 5.16-4.34L5.16-4.34L5.16-4.34Q4.80-4.34 4.65-4.39L4.65-4.39L4.65-4.39Q4.69-4.75 4.69-4.99L4.69-4.99L4.69-4.99Q4.69-5.22 4.68-5.39L4.68-5.39L4.68-5.39Q4.67-5.56 4.62-5.72L4.62-5.72L4.62-5.72Q4.52-6.09 4.21-6.09L4.21-6.09L4.21-6.09Q3.91-6.09 3.60-5.80L3.60-5.80L3.60-5.80Q3.30-5.52 3.04-5.04L3.04-5.04L3.04-5.04Q2.45-3.95 2.45-2.66L2.45-2.66L2.45-2.66Q2.45-2.04 2.80-1.69L2.80-1.69L2.80-1.69Q3.15-1.33 3.90-1.33L3.90-1.33L3.90-1.33Q4.46-1.33 4.99-1.70L4.99-1.70L4.99-1.70Q5.22-1.86 5.39-2.07ZM8.66 0.20L8.66 0.20L8.66 0.20Q6.46 0.20 6.46-1.87L6.46-1.87L6.46-1.87Q6.46-3.34 7.27-4.29L7.27-4.29L7.27-4.29Q8.13-5.30 9.62-5.30L9.62-5.30L9.62-5.30Q10.70-5.30 11.25-4.80L11.25-4.80L11.25-4.80Q11.80-4.30 11.80-3.25L11.80-3.25L11.80-3.25Q11.80-1.65 10.94-0.72L10.94-0.72L10.94-0.72Q10.10 0.20 8.66 0.20ZM8.92-4.15L8.92-4.15L8.92-4.15Q8.80-3.88 8.71-3.48L8.71-3.48L8.71-3.48Q8.61-3.07 8.49-2.43L8.49-2.43L8.49-2.43Q8.37-1.79 8.37-1L8.37-1L8.37-1Q8.37-0.74 8.46-0.57L8.46-0.57L8.46-0.57Q8.54-0.40 8.77-0.40L8.77-0.40L8.77-0.40Q9-0.40 9.14-0.51L9.14-0.51L9.14-0.51Q9.29-0.62 9.40-0.88L9.40-0.88L9.40-0.88Q9.60-1.34 9.76-2.19L9.76-2.19L9.76-2.19Q9.92-3.05 9.94-3.42L9.94-3.42L9.94-3.42Q9.95-3.79 9.95-4.07L9.95-4.07L9.95-4.07Q9.95-4.34 9.87-4.52L9.87-4.52L9.87-4.52Q9.79-4.70 9.57-4.70L9.57-4.70L9.57-4.70Q9.34-4.70 9.19-4.56L9.19-4.56L9.19-4.56Q9.04-4.42 8.92-4.15ZM16.02-4.93L16.02-4.93L16.02-4.93Q16.35-5.30 16.92-5.30L16.92-5.30L16.92-5.30Q17.27-5.30 17.54-5.11L17.54-5.11L17.54-5.11Q17.81-4.92 17.81-4.57L17.81-4.57L17.81-4.57Q17.81-4.21 17.70-3.83L17.70-3.83L17.70-3.83Q17.59-3.45 17.42-3.06L17.42-3.06L17.42-3.06Q17.08-2.30 16.61-1.67L16.61-1.67L16.61-1.67Q15.95-0.76 15.32-0.28L15.32-0.28L15.32-0.28Q14.68 0.20 13.99 0.20L13.99 0.20L13.99 0.20Q13.43 0.20 13.09 0.07L13.09 0.07L13.09 0.07Q13.03-2.03 12.96-2.78L12.96-2.78L12.96-2.78Q12.88-3.53 12.82-3.94L12.82-3.94L12.82-3.94Q12.72-4.74 12.42-4.93L12.42-4.93L12.42-4.93Q12.65-5.13 12.88-5.21L12.88-5.21L12.88-5.21Q13.10-5.30 13.57-5.30L13.57-5.30L13.57-5.30Q14.03-5.30 14.36-4.94L14.36-4.94L14.36-4.94Q14.69-4.57 14.76-3.93L14.76-3.93L14.76-3.93Q14.82-3.28 14.82-2.50L14.82-2.50L14.82-2.50Q14.82-1.72 14.76-0.78L14.76-0.78L14.76-0.78Q15.07-1 15.40-1.67L15.40-1.67L15.40-1.67Q15.85-2.60 16.01-3.72L16.01-3.72L16.01-3.72Q16.06-4.06 16.06-4.42L16.06-4.42L16.06-4.42Q16.06-4.78 16.02-4.93ZM20.48-0.55L20.48-0.55L20.48-0.55Q20.17 0.20 19.18 0.20L19.18 0.20L19.18 0.20Q18.67 0.20 18.35-0.15L18.35-0.15L18.35-0.15Q18.08-0.46 18.08-0.77L18.08-0.77L18.08-0.77Q18.08-1.58 18.45-3.16L18.45-3.16L18.82-5.10L20.85-5.30L20.24-2.14L20.24-2.14Q20.07-1.40 20.07-1.14L20.07-1.14L20.07-1.14Q20.07-0.57 20.48-0.55ZM19-6.49L19-6.49L19-6.49Q19-6.88 19.32-7.09L19.32-7.09L19.32-7.09Q19.65-7.30 20.12-7.30L20.12-7.30L20.12-7.30Q20.59-7.30 20.88-7.09L20.88-7.09L20.88-7.09Q21.16-6.88 21.16-6.49L21.16-6.49L21.16-6.49Q21.16-6.10 20.84-5.90L20.84-5.90L20.84-5.90Q20.53-5.70 20.06-5.70L20.06-5.70L20.06-5.70Q19.59-5.70 19.30-5.90L19.30-5.90L19.30-5.90Q19-6.10 19-6.49ZM24.48-5.30L24.48-5.30L24.48-5.30Q24.84-5.30 25.12-5.22L25.12-5.22L25.12-5.22Q25.13-5.26 25.15-5.37L25.15-5.37L25.20-5.68L25.20-5.68Q25.24-5.88 25.30-6.21L25.30-6.21L25.46-7L27.45-7.20L26.34-1.40L26.34-1.40Q26.33-1.34 26.33-1.24L26.33-1.24L26.33-1.08L26.33-1.08Q26.33-0.86 26.44-0.70L26.44-0.70L26.44-0.70Q26.55-0.53 26.73-0.53L26.73-0.53L26.73-0.53Q26.53-0.06 25.92 0.14L25.92 0.14L25.92 0.14Q25.71 0.20 25.41 0.20L25.41 0.20L25.41 0.20Q25.12 0.20 24.85 0.04L24.85 0.04L24.85 0.04Q24.58-0.11 24.50-0.37L24.50-0.37L24.50-0.37Q24.34-0.11 24.02 0.04L24.02 0.04L24.02 0.04Q23.70 0.20 23.23 0.20L23.23 0.20L23.23 0.20Q22.77 0.20 22.39 0.08L22.39 0.08L22.39 0.08Q22-0.04 21.76-0.30L21.76-0.30L21.76-0.30Q21.32-0.81 21.32-1.97L21.32-1.97L21.32-1.97Q21.32-3.47 22.20-4.38L22.20-4.38L22.20-4.38Q23.08-5.30 24.48-5.30ZM24.41-4.70L24.41-4.70L24.41-4.70Q24.04-4.70 23.84-4.30L23.84-4.30L23.84-4.30Q23.64-3.90 23.43-2.91L23.43-2.91L23.43-2.91Q23.23-1.92 23.23-1.03L23.23-1.03L23.23-1.03Q23.23-0.42 23.59-0.42L23.59-0.42L23.59-0.42Q23.91-0.42 24.14-0.74L24.14-0.74L24.14-0.74Q24.36-1.06 24.45-1.59L24.45-1.59L24.99-4.52L24.99-4.52Q24.78-4.70 24.41-4.70ZM33.69-3.22L35.71-3.40L35.71-3.40Q34.99-1.82 34.99 0.01L34.99 0.01L34.99 0.01Q34.72 0.20 34.33 0.20L34.33 0.20L34.33 0.20Q33.93 0.20 33.68 0.01L33.68 0.01L33.68 0.01Q33.43-0.17 33.38-0.36L33.38-0.36L33.38-0.36Q33.13-0.10 32.73 0.05L32.73 0.05L32.73 0.05Q32.32 0.20 31.89 0.20L31.89 0.20L31.89 0.20Q31.46 0.20 31.08 0.06L31.08 0.06L31.08 0.06Q30.71-0.08 30.42-0.39L30.42-0.39L30.42-0.39Q29.78-1.07 29.78-2.36L29.78-2.36L29.78-2.36Q29.78-4.36 30.85-5.56L30.85-5.56L30.85-5.56Q31.95-6.80 33.90-6.80L33.90-6.80L33.90-6.80Q35.25-6.80 35.73-6.10L35.73-6.10L35.73-6.10Q35.88-5.88 35.88-5.62L35.88-5.62L35.88-5.62Q35.88-5.35 35.77-5.13L35.77-5.13L35.77-5.13Q35.65-4.90 35.47-4.72L35.47-4.72L35.47-4.72Q35.04-4.32 34.51-4.32L34.51-4.32L34.51-4.32Q34.30-4.32 34.10-4.39L34.10-4.39L34.10-4.39Q34.14-4.69 34.14-5.04L34.14-5.04L34.14-5.04Q34.14-5.39 34.12-5.55L34.12-5.55L34.12-5.55Q34.09-5.71 34.03-5.84L34.03-5.84L34.03-5.84Q33.90-6.11 33.62-6.11L33.62-6.11L33.62-6.11Q33.33-6.11 33.02-5.80L33.02-5.80L33.02-5.80Q32.70-5.50 32.45-5L32.45-5L32.45-5Q31.90-3.88 31.90-2.53L31.90-2.53L31.90-2.53Q31.90-1.91 32.14-1.47L32.14-1.47L32.14-1.47Q32.40-0.99 32.86-0.99L32.86-0.99L32.86-0.99Q33.02-0.99 33.16-1.07L33.16-1.07L33.16-1.07Q33.31-1.15 33.37-1.21L33.37-1.21L33.69-3.22ZM39.33-2.81L39.33-2.81L39.33-2.81Q39.69-3.45 39.69-4.10L39.69-4.10L39.69-4.10Q39.69-4.53 39.38-4.53L39.38-4.53L39.38-4.53Q39.14-4.53 38.89-4.12L38.89-4.12L38.89-4.12Q38.63-3.71 38.55-3.18L38.55-3.18L38.03 0L35.96 0.20L36.98-5.10L38.63-5.30L38.45-4.29L38.45-4.29Q38.94-5.30 40.04-5.30L40.04-5.30L40.04-5.30Q40.62-5.30 40.94-5L40.94-5L40.94-5Q41.25-4.70 41.25-4.08L41.25-4.08L41.25-4.08Q41.25-3.47 40.84-3.08L40.84-3.08L40.84-3.08Q40.44-2.69 39.75-2.69L39.75-2.69L39.75-2.69Q39.45-2.69 39.33-2.81ZM41.84-0.30L41.84-0.30L41.84-0.30Q41.61-0.56 41.51-0.97L41.51-0.97L41.51-0.97Q41.40-1.38 41.40-2.05L41.40-2.05L41.40-2.05Q41.40-2.72 41.63-3.33L41.63-3.33L41.63-3.33Q41.86-3.94 42.28-4.38L42.28-4.38L42.28-4.38Q43.14-5.30 44.56-5.30L44.56-5.30L44.56-5.30Q45.07-5.30 45.44-5.13L45.44-5.13L47.15-5.30L46.41-1.40L46.41-1.40Q46.38-1.28 46.38-1.06L46.38-1.06L46.38-1.06Q46.38-0.84 46.52-0.70L46.52-0.70L46.52-0.70Q46.65-0.56 46.85-0.54L46.85-0.54L46.85-0.54Q46.75-0.20 46.39 0L46.39 0L46.39 0Q46.02 0.20 45.61 0.20L45.61 0.20L45.61 0.20Q45.20 0.20 44.93 0.04L44.93 0.04L44.93 0.04Q44.65-0.11 44.57-0.37L44.57-0.37L44.57-0.37Q44.41-0.12 44.07 0.04L44.07 0.04L44.07 0.04Q43.73 0.20 43.28 0.20L43.28 0.20L43.28 0.20Q42.82 0.20 42.45 0.08L42.45 0.08L42.45 0.08Q42.08-0.04 41.84-0.30ZM43.95-4.36L43.95-4.36L43.95-4.36Q43.84-4.18 43.74-3.88L43.74-3.88L43.74-3.88Q43.64-3.57 43.48-2.75L43.48-2.75L43.48-2.75Q43.31-1.94 43.31-1.36L43.31-1.36L43.31-1.36Q43.31-0.78 43.40-0.61L43.40-0.61L43.40-0.61Q43.49-0.44 43.65-0.44L43.65-0.44L43.65-0.44Q43.97-0.44 44.20-0.74L44.20-0.74L44.20-0.74Q44.44-1.05 44.53-1.59L44.53-1.59L45.06-4.52L45.06-4.52Q44.85-4.70 44.61-4.70L44.61-4.70L44.61-4.70Q44.36-4.70 44.22-4.62L44.22-4.62L44.22-4.62Q44.07-4.54 43.95-4.36ZM52.35-0.69L52.35-0.69L52.35-0.69Q51.93-0.26 51.36-0.03L51.36-0.03L51.36-0.03Q50.78 0.20 50.21 0.20L50.21 0.20L50.21 0.20Q49.64 0.20 49.44 0.10L49.44 0.10L49.13 1.80L47.10 2L48.48-5.10L50.11-5.27L49.98-4.58L49.98-4.58Q50.40-5.29 51.27-5.29L51.27-5.29L51.27-5.29Q52.25-5.29 52.77-4.66L52.77-4.66L52.77-4.66Q53.23-4.09 53.23-3.22L53.23-3.22L53.23-3.22Q53.23-2.35 53-1.73L53-1.73L53-1.73Q52.77-1.11 52.35-0.69ZM50.09-3.49L49.56-0.56L49.56-0.56Q49.77-0.38 50.03-0.38L50.03-0.38L50.03-0.38Q50.29-0.38 50.44-0.48L50.44-0.48L50.44-0.48Q50.59-0.58 50.70-0.78L50.70-0.78L50.70-0.78Q51-1.32 51.24-2.96L51.24-2.96L51.24-2.96Q51.31-3.44 51.31-3.91L51.31-3.91L51.31-3.91Q51.31-4.38 51.21-4.53L51.21-4.53L51.21-4.53Q51.10-4.68 50.90-4.68L50.90-4.68L50.90-4.68Q50.29-4.68 50.09-3.49L50.09-3.49ZM58.86-1.11L58.86-1.11L58.86-1.11Q58.86-0.67 59.31-0.54L59.31-0.54L59.31-0.54Q59.20-0.17 58.77 0.03L58.77 0.03L58.77 0.03Q58.41 0.20 58.02 0.20L58.02 0.20L58.02 0.20Q57.62 0.20 57.42 0.10L57.42 0.10L57.42 0.10Q57.21-0.01 57.10-0.18L57.10-0.18L57.10-0.18Q56.92-0.44 56.92-0.93L56.92-0.93L56.92-0.93Q56.92-1.22 57.08-2.02L57.08-2.02L57.22-2.78L57.22-2.78Q57.39-3.65 57.39-3.97L57.39-3.97L57.39-3.97Q57.39-4.53 57.08-4.53L57.08-4.53L57.08-4.53Q56.69-4.53 56.44-3.96L56.44-3.96L56.44-3.96Q56.34-3.74 56.27-3.41L56.27-3.41L55.59 0L53.58 0.20L54.99-7L57-7.20L56.92-6.80L56.92-6.80Q56.64-5.26 56.40-4.74L56.40-4.74L56.40-4.74Q56.96-5.30 57.99-5.30L57.99-5.30L57.99-5.30Q59.08-5.30 59.28-4.58L59.28-4.58L59.28-4.58Q59.35-4.35 59.35-4.15L59.35-4.15L59.35-4.15Q59.35-3.95 59.34-3.79L59.34-3.79L59.34-3.79Q59.32-3.64 59.27-3.36L59.27-3.36L59.14-2.64L58.91-1.51L58.91-1.51Q58.86-1.28 58.86-1.11ZM63.11-3.51L63.11-3.51L63.11-3.51Q63.25-3.88 63.25-4.20L63.25-4.20L63.25-4.20Q63.25-4.79 62.77-4.79L62.77-4.79L62.77-4.79Q62.52-4.79 62.32-4.57L62.32-4.57L62.32-4.57Q62.11-4.34 62.11-4.06L62.11-4.06L62.11-4.06Q62.11-3.86 62.27-3.70L62.27-3.70L62.27-3.70Q62.50-3.48 63.09-3.12L63.09-3.12L63.09-3.12Q63.68-2.76 63.91-2.46L63.91-2.46L63.91-2.46Q64.13-2.17 64.13-1.77L64.13-1.77L64.13-1.77Q64.13-1.36 63.94-0.99L63.94-0.99L63.94-0.99Q63.74-0.62 63.39-0.36L63.39-0.36L63.39-0.36Q62.64 0.20 61.44 0.20L61.44 0.20L61.44 0.20Q60.79 0.20 60.29-0.14L60.29-0.14L60.29-0.14Q59.79-0.47 59.79-0.86L59.79-0.86L59.79-0.86Q59.79-1.25 60.08-1.48L60.08-1.48L60.08-1.48Q60.36-1.71 60.78-1.71L60.78-1.71L60.78-1.71Q61.20-1.71 61.46-1.55L61.46-1.55L61.46-1.55Q61.33-1.22 61.33-1L61.33-1L61.33-1Q61.33-0.34 61.89-0.34L61.89-0.34L61.89-0.34Q62.13-0.34 62.29-0.49L62.29-0.49L62.29-0.49Q62.45-0.64 62.45-0.90L62.45-0.90L62.45-0.90Q62.45-1.41 61.59-1.95L61.59-1.95L61.59-1.95Q60.89-2.41 60.73-2.59L60.73-2.59L60.73-2.59Q60.46-2.91 60.46-3.31L60.46-3.31L60.46-3.31Q60.46-3.71 60.65-4.09L60.65-4.09L60.65-4.09Q60.84-4.47 61.19-4.74L61.19-4.74L61.19-4.74Q61.92-5.30 63.19-5.30L63.19-5.30L63.19-5.30Q63.84-5.30 64.23-5.04L64.23-5.04L64.23-5.04Q64.61-4.78 64.61-4.34L64.61-4.34L64.61-4.34Q64.61-3.90 64.34-3.65L64.34-3.65L64.34-3.65Q64.08-3.40 63.60-3.40L63.60-3.40L63.60-3.40Q63.27-3.40 63.11-3.51Z" fill="#444"></path></g></g><style>text {
  font-size: 64px;
  font-family: Arial Black;
  dominant-baseline: central;
  text-anchor: middle;
}</style></svg>