<svg width="76.77999877929688px" height="38.08001708984375px" xmlns="http://www.w3.org/2000/svg" viewBox="211.61000061035156 55.959991455078125 76.77999877929688 38.08001708984375" style="background: rgb(70, 158, 246) none repeat scroll 0% 0%;" preserveAspectRatio="xMidYMid"><filter id="editing-goldstamp"><feFlood flood-color="#4688f6" result="flood"></feFlood><feMorphology operator="dilate" radius="1" in="SourceGraphic" result="outline"></feMorphology><feComposite operator="in" in="flood" in2="outline" result="outline2"></feComposite><feGaussianBlur stdDeviation="4" in="SourceAlpha" result="blur"></feGaussianBlur><feSpecularLighting surfaceScale="2" specularConstant="0.7" specularExponent="10" lighting-color="#white" in="blur" result="specular"><fePointLight x="200" y="-1000" z="300"></fePointLight></feSpecularLighting><feComposite operator="in" in="specular" in2="SourceGraphic" result="specular2"></feComposite><feComposite in="SourceGraphic" in2="specular2" operator="arithmetic" k1="3" k2="2" k3="1" k4="0" result="specular3"></feComposite><feMerge><feMergeNode in="outline2"></feMergeNode><feMergeNode in="specular3"></feMergeNode></feMerge></filter><g filter="url(#editing-goldstamp)"><g transform="translate(229.90440940856934, 79.59961318969727)"><path d="M4.22-3.22L6.24-3.40L6.24-3.40Q5.52-1.82 5.52 0.01L5.52 0.01L5.52 0.01Q5.25 0.20 4.86 0.20L4.86 0.20L4.86 0.20Q4.46 0.20 4.21 0.01L4.21 0.01L4.21 0.01Q3.96-0.17 3.91-0.36L3.91-0.36L3.91-0.36Q3.66-0.10 3.25 0.05L3.25 0.05L3.25 0.05Q2.85 0.20 2.42 0.20L2.42 0.20L2.42 0.20Q1.99 0.20 1.61 0.06L1.61 0.06L1.61 0.06Q1.24-0.08 0.95-0.39L0.95-0.39L0.95-0.39Q0.31-1.07 0.31-2.36L0.31-2.36L0.31-2.36Q0.31-4.36 1.38-5.56L1.38-5.56L1.38-5.56Q2.48-6.80 4.43-6.80L4.43-6.80L4.43-6.80Q5.78-6.80 6.26-6.10L6.26-6.10L6.26-6.10Q6.41-5.88 6.41-5.62L6.41-5.62L6.41-5.62Q6.41-5.35 6.29-5.13L6.29-5.13L6.29-5.13Q6.18-4.90 6-4.72L6-4.72L6-4.72Q5.57-4.32 5.04-4.32L5.04-4.32L5.04-4.32Q4.83-4.32 4.63-4.39L4.63-4.39L4.63-4.39Q4.67-4.69 4.67-5.04L4.67-5.04L4.67-5.04Q4.67-5.39 4.65-5.55L4.65-5.55L4.65-5.55Q4.62-5.71 4.56-5.84L4.56-5.84L4.56-5.84Q4.43-6.11 4.15-6.11L4.15-6.11L4.15-6.11Q3.86-6.11 3.54-5.80L3.54-5.80L3.54-5.80Q3.23-5.50 2.98-5L2.98-5L2.98-5Q2.43-3.88 2.43-2.53L2.43-2.53L2.43-2.53Q2.43-1.91 2.67-1.47L2.67-1.47L2.67-1.47Q2.93-0.99 3.39-0.99L3.39-0.99L3.39-0.99Q3.55-0.99 3.70-1.07L3.70-1.07L3.70-1.07Q3.84-1.15 3.90-1.21L3.90-1.21L4.22-3.22ZM9.86-2.81L9.86-2.81L9.86-2.81Q10.22-3.45 10.22-4.10L10.22-4.10L10.22-4.10Q10.22-4.53 9.91-4.53L9.91-4.53L9.91-4.53Q9.67-4.53 9.42-4.12L9.42-4.12L9.42-4.12Q9.16-3.71 9.08-3.18L9.08-3.18L8.56 0L6.49 0.20L7.51-5.10L9.16-5.30L8.98-4.29L8.98-4.29Q9.47-5.30 10.57-5.30L10.57-5.30L10.57-5.30Q11.15-5.30 11.46-5L11.46-5L11.46-5Q11.78-4.70 11.78-4.08L11.78-4.08L11.78-4.08Q11.78-3.47 11.38-3.08L11.38-3.08L11.38-3.08Q10.97-2.69 10.28-2.69L10.28-2.69L10.28-2.69Q9.98-2.69 9.86-2.81ZM12.38-0.30L12.38-0.30L12.38-0.30Q12.14-0.56 12.04-0.97L12.04-0.97L12.04-0.97Q11.93-1.38 11.93-2.05L11.93-2.05L11.93-2.05Q11.93-2.72 12.16-3.33L12.16-3.33L12.16-3.33Q12.39-3.94 12.81-4.38L12.81-4.38L12.81-4.38Q13.67-5.30 15.09-5.30L15.09-5.30L15.09-5.30Q15.60-5.30 15.97-5.13L15.97-5.13L17.68-5.30L16.94-1.40L16.94-1.40Q16.91-1.28 16.91-1.06L16.91-1.06L16.91-1.06Q16.91-0.84 17.05-0.70L17.05-0.70L17.05-0.70Q17.18-0.56 17.38-0.54L17.38-0.54L17.38-0.54Q17.28-0.20 16.91 0L16.91 0L16.91 0Q16.55 0.20 16.14 0.20L16.14 0.20L16.14 0.20Q15.73 0.20 15.46 0.04L15.46 0.04L15.46 0.04Q15.18-0.11 15.10-0.37L15.10-0.37L15.10-0.37Q14.94-0.12 14.60 0.04L14.60 0.04L14.60 0.04Q14.26 0.20 13.80 0.20L13.80 0.20L13.80 0.20Q13.35 0.20 12.98 0.08L12.98 0.08L12.98 0.08Q12.61-0.04 12.38-0.30ZM14.48-4.36L14.48-4.36L14.48-4.36Q14.37-4.18 14.27-3.88L14.27-3.88L14.27-3.88Q14.17-3.57 14.00-2.75L14.00-2.75L14.00-2.75Q13.84-1.94 13.84-1.36L13.84-1.36L13.84-1.36Q13.84-0.78 13.93-0.61L13.93-0.61L13.93-0.61Q14.02-0.44 14.18-0.44L14.18-0.44L14.18-0.44Q14.50-0.44 14.73-0.74L14.73-0.74L14.73-0.74Q14.97-1.05 15.06-1.59L15.06-1.59L15.59-4.52L15.59-4.52Q15.38-4.70 15.13-4.70L15.13-4.70L15.13-4.70Q14.89-4.70 14.74-4.62L14.74-4.62L14.74-4.62Q14.60-4.54 14.48-4.36ZM22.88-0.69L22.88-0.69L22.88-0.69Q22.46-0.26 21.89-0.03L21.89-0.03L21.89-0.03Q21.31 0.20 20.74 0.20L20.74 0.20L20.74 0.20Q20.17 0.20 19.97 0.10L19.97 0.10L19.66 1.80L17.63 2L19.01-5.10L20.64-5.27L20.51-4.58L20.51-4.58Q20.93-5.29 21.80-5.29L21.80-5.29L21.80-5.29Q22.78-5.29 23.30-4.66L23.30-4.66L23.30-4.66Q23.76-4.09 23.76-3.22L23.76-3.22L23.76-3.22Q23.76-2.35 23.53-1.73L23.53-1.73L23.53-1.73Q23.30-1.11 22.88-0.69ZM20.62-3.49L20.09-0.56L20.09-0.56Q20.30-0.38 20.56-0.38L20.56-0.38L20.56-0.38Q20.82-0.38 20.97-0.48L20.97-0.48L20.97-0.48Q21.12-0.58 21.23-0.78L21.23-0.78L21.23-0.78Q21.53-1.32 21.77-2.96L21.77-2.96L21.77-2.96Q21.84-3.44 21.84-3.91L21.84-3.91L21.84-3.91Q21.84-4.38 21.73-4.53L21.73-4.53L21.73-4.53Q21.63-4.68 21.43-4.68L21.43-4.68L21.43-4.68Q20.82-4.68 20.62-3.49L20.62-3.49ZM29.39-1.11L29.39-1.11L29.39-1.11Q29.39-0.67 29.84-0.54L29.84-0.54L29.84-0.54Q29.73-0.17 29.30 0.03L29.30 0.03L29.30 0.03Q28.94 0.20 28.55 0.20L28.55 0.20L28.55 0.20Q28.15 0.20 27.95 0.10L27.95 0.10L27.95 0.10Q27.74-0.01 27.63-0.18L27.63-0.18L27.63-0.18Q27.45-0.44 27.45-0.93L27.45-0.93L27.45-0.93Q27.45-1.22 27.61-2.02L27.61-2.02L27.75-2.78L27.75-2.78Q27.92-3.65 27.92-3.97L27.92-3.97L27.92-3.97Q27.92-4.53 27.61-4.53L27.61-4.53L27.61-4.53Q27.22-4.53 26.97-3.96L26.97-3.96L26.97-3.96Q26.87-3.74 26.80-3.41L26.80-3.41L26.12 0L24.11 0.20L25.52-7L27.53-7.20L27.45-6.80L27.45-6.80Q27.17-5.26 26.93-4.74L26.93-4.74L26.93-4.74Q27.49-5.30 28.52-5.30L28.52-5.30L28.52-5.30Q29.61-5.30 29.81-4.58L29.81-4.58L29.81-4.58Q29.88-4.35 29.88-4.15L29.88-4.15L29.88-4.15Q29.88-3.95 29.87-3.79L29.87-3.79L29.87-3.79Q29.85-3.64 29.80-3.36L29.80-3.36L29.67-2.64L29.44-1.51L29.44-1.51Q29.39-1.28 29.39-1.11ZM33.07 2L33.49-0.03L33.49-0.03Q33.16 0.20 32.63 0.20L32.63 0.20L32.63 0.20Q32.11 0.20 31.73 0.08L31.73 0.08L31.73 0.08Q31.34-0.04 31.10-0.30L31.10-0.30L31.10-0.30Q30.64-0.80 30.64-1.97L30.64-1.97L30.64-1.97Q30.64-3.45 31.52-4.38L31.52-4.38L31.52-4.38Q32.38-5.30 33.80-5.30L33.80-5.30L33.80-5.30Q34.31-5.30 34.68-5.13L34.68-5.13L36.45-5.30L35.09 1.80L33.07 2ZM32.90-0.42L32.90-0.42L32.90-0.42Q33.21-0.42 33.44-0.73L33.44-0.73L33.44-0.73Q33.67-1.05 33.77-1.59L33.77-1.59L34.30-4.52L34.30-4.52Q34.09-4.70 33.84-4.70L33.84-4.70L33.84-4.70Q33.60-4.70 33.45-4.62L33.45-4.62L33.45-4.62Q33.31-4.54 33.20-4.36L33.20-4.36L33.20-4.36Q32.91-3.89 32.68-2.53L32.68-2.53L32.68-2.53Q32.55-1.72 32.55-1.07L32.55-1.07L32.55-1.07Q32.55-0.42 32.90-0.42ZM39.21-0.55L39.21-0.55L39.21-0.55Q38.90 0.20 37.91 0.20L37.91 0.20L37.91 0.20Q37.41 0.20 37.09-0.15L37.09-0.15L37.09-0.15Q36.83-0.44 36.83-0.77L36.83-0.77L36.83-0.77Q36.83-1.52 37.18-3.16L37.18-3.16L37.91-7L39.94-7.20L38.97-2.14L38.97-2.14Q38.80-1.40 38.80-1.14L38.80-1.14L38.80-1.14Q38.80-0.57 39.21-0.55Z" fill="#ca4fda"></path></g></g><style>text {
  font-size: 64px;
  font-family: Arial Black;
  dominant-baseline: central;
  text-anchor: middle;
}</style></svg>