<svg width="96.839990234375px" height="38.08001708984375px" xmlns="http://www.w3.org/2000/svg" viewBox="201.5800048828125 55.959991455078125 96.839990234375 38.08001708984375" style="background: rgb(37, 173, 15) none repeat scroll 0% 0%;" preserveAspectRatio="xMidYMid"><defs><filter id="editing-extrude-glow"><feFlood flood-color="#333333" result="flood-1"></feFlood><feMorphology operator="erode" radius="1" in="SourceAlpha" result="erode"></feMorphology><feComposite operator="in" in="flood-1" in2="erode" result="comp1"></feComposite><feConvolveMatrix order="3,3" divisor="1" in="comp1" result="convolve" kernelMatrix="0 0 0 1 1 1 0 0 0"></feConvolveMatrix><feOffset dx="-3" dy="0" in="convolve" result="extrude"></feOffset><feComposite operator="in" in="flood-1" in2="extrude" result="comp-extrude"></feComposite><feFlood flood-color="#43ade0" result="flood-2"></feFlood><feComposite operator="in" in="flood-2" in2="SourceAlpha" result="comp2"></feComposite><feMorphology operator="dilate" radius="1" in="comp2" result="dilate"></feMorphology><feOffset dx="-4.5" dy="0" in="dilate" result="offset"></feOffset><feGaussianBlur in="offset" stdDeviation="5.8" result="blur"></feGaussianBlur><feComponentTransfer in="blur" result="shadow"><feFuncA type="linear" slope="0.8" intercept="-0.2"></feFuncA></feComponentTransfer><feMerge><feMergeNode in="shadow"></feMergeNode><feMergeNode in="comp-extrude"></feMergeNode><feMergeNode in="SourceGraphic"></feMergeNode></feMerge></filter></defs><g filter="url(#editing-extrude-glow)"><g transform="translate(222.85523223876953, 78.69922256469727)"><path d="M1.02 0L-0.13 0L1.68-6.60L3.77-6.60L4.23-2.83L6.09-6.60L7.84-6.60L8.02-1.66L8.02-1.66Q8.06-0.68 8.54-0.38L8.54-0.38L8.54-0.38Q8.43-0.18 8.11 0.01L8.11 0.01L8.11 0.01Q7.79 0.20 7.37 0.20L7.37 0.20L7.37 0.20Q6.94 0.20 6.69 0.08L6.69 0.08L6.69 0.08Q6.44-0.04 6.30-0.24L6.30-0.24L6.30-0.24Q6.05-0.60 6.05-1.29L6.05-1.29L6.05-4.38L4.08 0L2.84 0L2.14-4.49L1.02 0ZM13.02-1.69L13.02-1.69L13.02-1.69Q13.27-1.52 13.27-1.15L13.27-1.15L13.27-1.15Q13.27-0.77 13.08-0.53L13.08-0.53L13.08-0.53Q12.89-0.29 12.58-0.13L12.58-0.13L12.58-0.13Q11.94 0.20 11.25 0.20L11.25 0.20L11.25 0.20Q10.56 0.20 10.16 0.05L10.16 0.05L10.16 0.05Q9.75-0.10 9.48-0.38L9.48-0.38L9.48-0.38Q8.95-0.91 8.95-1.88L8.95-1.88L8.95-1.88Q8.95-3.39 9.77-4.31L9.77-4.31L9.77-4.31Q10.65-5.30 12.18-5.30L12.18-5.30L12.18-5.30Q13.13-5.30 13.60-4.90L13.60-4.90L13.60-4.90Q13.95-4.60 13.95-4.11L13.95-4.11L13.95-4.11Q13.95-2.35 10.91-2.35L10.91-2.35L10.91-2.35Q10.87-2.09 10.87-1.87L10.87-1.87L10.87-1.87Q10.87-1.41 11.08-1.24L11.08-1.24L11.08-1.24Q11.28-1.06 11.66-1.06L11.66-1.06L11.66-1.06Q12.04-1.06 12.45-1.24L12.45-1.24L12.45-1.24Q12.85-1.41 13.02-1.69ZM10.98-2.78L10.98-2.78L10.98-2.78Q11.69-2.78 12.10-3.22L12.10-3.22L12.10-3.22Q12.51-3.64 12.51-4.31L12.51-4.31L12.51-4.31Q12.51-4.54 12.43-4.67L12.43-4.67L12.43-4.67Q12.34-4.79 12.17-4.79L12.17-4.79L12.17-4.79Q12-4.79 11.86-4.73L11.86-4.73L11.86-4.73Q11.71-4.66 11.56-4.44L11.56-4.44L11.56-4.44Q11.19-3.94 10.98-2.78ZM17.42-2.81L17.42-2.81L17.42-2.81Q17.78-3.45 17.78-4.10L17.78-4.10L17.78-4.10Q17.78-4.53 17.47-4.53L17.47-4.53L17.47-4.53Q17.23-4.53 16.98-4.12L16.98-4.12L16.98-4.12Q16.72-3.71 16.64-3.18L16.64-3.18L16.12 0L14.05 0.20L15.07-5.10L16.72-5.30L16.54-4.29L16.54-4.29Q17.03-5.30 18.13-5.30L18.13-5.30L18.13-5.30Q18.71-5.30 19.03-5L19.03-5L19.03-5Q19.34-4.70 19.34-4.08L19.34-4.08L19.34-4.08Q19.34-3.47 18.94-3.08L18.94-3.08L18.94-3.08Q18.53-2.69 17.84-2.69L17.84-2.69L17.84-2.69Q17.54-2.69 17.42-2.81ZM23.73 0.20L23.73 0.20L23.73 0.20Q22.52 0.20 22.52-0.74L22.52-0.74L22.52-0.74Q22.53-1 22.61-1.44L22.61-1.44L22.79-2.36L22.79-2.36Q23.06-3.66 23.06-3.95L23.06-3.95L23.06-3.95Q23.06-4.53 22.72-4.53L22.72-4.53L22.72-4.53Q22.15-4.53 21.85-3.04L21.85-3.04L21.26 0L19.25 0.20L20.29-5.11L21.93-5.30L21.77-4.32L21.77-4.32Q22.24-5.30 23.68-5.30L23.68-5.30L23.68-5.30Q24.38-5.30 24.68-5.00L24.68-5.00L24.68-5.00Q24.97-4.71 24.97-4.05L24.97-4.05L24.97-4.05Q24.97-3.43 24.65-1.98L24.65-1.98L24.65-1.98Q24.50-1.33 24.50-1.08L24.50-1.08L24.50-1.08Q24.50-0.84 24.64-0.70L24.64-0.70L24.64-0.70Q24.77-0.56 24.97-0.54L24.97-0.54L24.97-0.54Q24.87-0.20 24.53 0L24.53 0L24.53 0Q24.18 0.20 23.73 0.20ZM31.73-4.62L31.73-4.62L31.73-4.62Q31.88-4.92 31.88-5.20L31.88-5.20L31.88-5.20Q31.88-5.48 31.85-5.63L31.85-5.63L31.85-5.63Q31.82-5.79 31.75-5.91L31.75-5.91L31.75-5.91Q31.60-6.17 31.30-6.17L31.30-6.17L31.30-6.17Q30.93-6.17 30.63-5.90L30.63-5.90L30.63-5.90Q30.31-5.62 30.31-5.18L30.31-5.18L30.31-5.18Q30.31-4.90 30.50-4.69L30.50-4.69L30.50-4.69Q30.70-4.47 31-4.27L31-4.27L31-4.27Q31.30-4.07 31.64-3.87L31.64-3.87L31.64-3.87Q31.98-3.67 32.28-3.43L32.28-3.43L32.28-3.43Q32.97-2.88 32.97-2.14L32.97-2.14L32.97-2.14Q32.97-1.64 32.70-1.22L32.70-1.22L32.70-1.22Q32.44-0.79 32-0.48L32-0.48L32-0.48Q31.04 0.20 29.77 0.20L29.77 0.20L29.77 0.20Q28.74 0.20 28.21-0.14L28.21-0.14L28.21-0.14Q27.68-0.47 27.68-0.98L27.68-0.98L27.68-0.98Q27.68-1.89 28.39-2.12L28.39-2.12L28.39-2.12Q28.59-2.19 28.89-2.19L28.89-2.19L28.89-2.19Q29.20-2.19 29.55-2.06L29.55-2.06L29.55-2.06Q29.39-1.65 29.39-1.28L29.39-1.28L29.39-1.28Q29.39-0.48 29.96-0.48L29.96-0.48L29.96-0.48Q30.33-0.48 30.64-0.75L30.64-0.75L30.64-0.75Q30.94-1.02 30.94-1.32L30.94-1.32L30.94-1.32Q30.94-1.63 30.75-1.85L30.75-1.85L30.75-1.85Q30.55-2.07 30.26-2.25L30.26-2.25L30.26-2.25Q29.97-2.42 29.64-2.59L29.64-2.59L29.64-2.59Q29.30-2.76 29.01-3L29.01-3L29.01-3Q28.33-3.55 28.33-4.43L28.33-4.43L28.33-4.43Q28.33-5 28.61-5.45L28.61-5.45L28.61-5.45Q28.89-5.89 29.34-6.19L29.34-6.19L29.34-6.19Q30.24-6.80 31.34-6.80L31.34-6.80L31.34-6.80Q32.45-6.80 32.98-6.47L32.98-6.47L32.98-6.47Q33.52-6.14 33.52-5.58L33.52-5.58L33.52-5.58Q33.52-5.09 33.14-4.78L33.14-4.78L33.14-4.78Q32.81-4.52 32.41-4.52L32.41-4.52L32.41-4.52Q32.01-4.52 31.73-4.62ZM33.89-1L33.89-1L33.89-1Q33.89-1.27 34.03-1.95L34.03-1.95L34.56-4.65L33.97-4.65L34.01-4.95L34.01-4.95Q35.21-5.31 36.37-6.19L36.37-6.19L36.85-6.19L36.61-5.10L37.39-5.10L37.30-4.65L36.53-4.65L36.02-1.95L36.02-1.95Q35.89-1.33 35.89-1.12L35.89-1.12L35.89-1.12Q35.89-0.64 36.31-0.54L36.31-0.54L36.31-0.54Q36.21-0.20 35.85 0L35.85 0L35.85 0Q35.49 0.20 34.98 0.20L34.98 0.20L34.98 0.20Q34.47 0.20 34.18-0.12L34.18-0.12L34.18-0.12Q33.89-0.44 33.89-1ZM37.73-0.30L37.73-0.30L37.73-0.30Q37.50-0.56 37.40-0.97L37.40-0.97L37.40-0.97Q37.29-1.38 37.29-2.05L37.29-2.05L37.29-2.05Q37.29-2.72 37.52-3.33L37.52-3.33L37.52-3.33Q37.75-3.94 38.17-4.38L38.17-4.38L38.17-4.38Q39.03-5.30 40.45-5.30L40.45-5.30L40.45-5.30Q40.96-5.30 41.33-5.13L41.33-5.13L43.04-5.30L42.30-1.40L42.30-1.40Q42.27-1.28 42.27-1.06L42.27-1.06L42.27-1.06Q42.27-0.84 42.41-0.70L42.41-0.70L42.41-0.70Q42.54-0.56 42.74-0.54L42.74-0.54L42.74-0.54Q42.64-0.20 42.28 0L42.28 0L42.28 0Q41.91 0.20 41.50 0.20L41.50 0.20L41.50 0.20Q41.09 0.20 40.82 0.04L40.82 0.04L40.82 0.04Q40.54-0.11 40.46-0.37L40.46-0.37L40.46-0.37Q40.30-0.12 39.96 0.04L39.96 0.04L39.96 0.04Q39.62 0.20 39.17 0.20L39.17 0.20L39.17 0.20Q38.71 0.20 38.34 0.08L38.34 0.08L38.34 0.08Q37.97-0.04 37.73-0.30ZM39.84-4.36L39.84-4.36L39.84-4.36Q39.73-4.18 39.63-3.88L39.63-3.88L39.63-3.88Q39.53-3.57 39.37-2.75L39.37-2.75L39.37-2.75Q39.20-1.94 39.20-1.36L39.20-1.36L39.20-1.36Q39.20-0.78 39.29-0.61L39.29-0.61L39.29-0.61Q39.38-0.44 39.54-0.44L39.54-0.44L39.54-0.44Q39.86-0.44 40.09-0.74L40.09-0.74L40.09-0.74Q40.33-1.05 40.42-1.59L40.42-1.59L40.95-4.52L40.95-4.52Q40.74-4.70 40.50-4.70L40.50-4.70L40.50-4.70Q40.25-4.70 40.11-4.62L40.11-4.62L40.11-4.62Q39.96-4.54 39.84-4.36ZM48.45-4.16L48.45-4.16L48.45-4.16Q48.45-3.74 48.10-3.48L48.10-3.48L48.10-3.48Q47.75-3.22 47.18-3.22L47.18-3.22L47.18-3.22Q46.94-3.22 46.80-3.29L46.80-3.29L46.80-3.29Q46.91-3.55 46.95-3.88L46.95-3.88L46.95-3.88Q46.98-4.20 46.98-4.29L46.98-4.29L46.98-4.29Q46.98-4.71 46.69-4.71L46.69-4.71L46.69-4.71Q46.49-4.71 46.27-4.46L46.27-4.46L46.27-4.46Q46.04-4.21 45.85-3.82L45.85-3.82L45.85-3.82Q45.43-2.92 45.43-2.01L45.43-2.01L45.43-2.01Q45.43-1.51 45.62-1.28L45.62-1.28L45.62-1.28Q45.81-1.06 46.23-1.06L46.23-1.06L46.23-1.06Q46.81-1.06 47.27-1.54L47.27-1.54L47.27-1.54Q47.40-1.69 47.47-1.86L47.47-1.86L47.47-1.86Q47.85-1.66 47.85-1.11L47.85-1.11L47.85-1.11Q47.85-0.55 47.23-0.18L47.23-0.18L47.23-0.18Q46.59 0.20 45.57 0.20L45.57 0.20L45.57 0.20Q43.54 0.20 43.54-1.95L43.54-1.95L43.54-1.95Q43.54-3.52 44.43-4.42L44.43-4.42L44.43-4.42Q45.29-5.30 46.87-5.30L46.87-5.30L46.87-5.30Q48.45-5.30 48.45-4.16ZM51.30-4.74L51.30-4.74L51.30-4.74Q51.84-5.30 52.98-5.30L52.98-5.30L52.98-5.30Q53.61-5.30 53.96-4.96L53.96-4.96L53.96-4.96Q54.30-4.63 54.30-4.01L54.30-4.01L54.30-4.01Q54.30-3.40 53.96-2.96L53.96-2.96L53.96-2.96Q53.61-2.53 52.97-2.35L52.97-2.35L52.97-2.35Q53.02-2.15 53.09-1.94L53.09-1.94L53.23-1.54L53.23-1.54Q53.42-1.03 53.57-0.85L53.57-0.85L53.57-0.85Q53.72-0.67 53.92-0.61L53.92-0.61L53.92-0.61Q53.81-0.20 53.41 0.02L53.41 0.02L53.41 0.02Q53.09 0.20 52.65 0.20L52.65 0.20L52.65 0.20Q51.36 0.20 51.19-1.79L51.19-1.79L51.19-1.79Q51.16-2.07 51.16-2.35L51.16-2.35L51.16-2.35Q51.66-2.49 52.01-2.96L52.01-2.96L52.01-2.96Q52.36-3.43 52.36-3.98L52.36-3.98L52.36-3.98Q52.36-4.53 51.97-4.53L51.97-4.53L51.97-4.53Q51.69-4.53 51.47-4.22L51.47-4.22L51.47-4.22Q51.25-3.91 51.15-3.38L51.15-3.38L50.49 0L48.47 0.20L49.87-7L51.88-7.20L51.65-6.01L51.65-6.01Q51.50-5.17 51.30-4.74Z" fill="#6c9ceb"></path></g></g><style>text {
  font-size: 64px;
  font-family: Arial Black;
  dominant-baseline: central;
  text-anchor: middle;
}</style></svg>