<svg width="81.760009765625px" height="38.599999999999994px" xmlns="http://www.w3.org/2000/svg" viewBox="209.1199951171875 55.7 81.760009765625 38.599999999999994" style="background: rgba(0, 0, 0, 0) none repeat scroll 0% 0%;" preserveAspectRatio="xMidYMid"><defs><linearGradient id="editing-gradient-gradient" x1="0" x2="1" y1="0.5" y2="0.5" gradientUnits="objectBoundingBox"><stop offset="0" stop-color="#0060ff"></stop><stop offset="1" stop-color="#b63df3"></stop></linearGradient></defs><g><g transform="translate(228.5621509552002, 79.9465799331665)"><path d="M-0.11-0.31L1.48-6.55L1.48-6.55Q1.23-6.55 1.13-6.55L1.13-6.55L1.13-6.55Q1.03-6.55 0.97-6.63L0.97-6.63L0.97-6.63Q0.91-6.72 0.94-6.83L0.94-6.83L0.99-7.04L0.99-7.04Q1.01-7.12 1.09-7.18L1.09-7.18L1.09-7.18Q1.16-7.24 1.22-7.24L1.22-7.24L2.92-7.24L2.92-7.24Q3.61-7.24 4.02-6.89L4.02-6.89L4.02-6.89Q4.44-6.55 4.44-5.88L4.44-5.88L4.44-5.88Q4.44-5.21 4.19-4.62L4.19-4.62L4.19-4.62Q3.76-3.61 2.80-3.30L2.80-3.30L3.26-0.34L3.26-0.34Q3.31 0 3.04 0L3.04 0L2.70 0L2.70 0Q2.57 0 2.51-0.08L2.51-0.08L2.51-0.08Q2.45-0.16 2.43-0.35L2.43-0.35L2.05-3.18L1.43-3.17L0.68-0.22L0.68-0.22Q0.62 0 0.38 0L0.38 0L0.09 0L0.09 0Q-0.03 0-0.09-0.09L-0.09-0.09L-0.09-0.09Q-0.14-0.18-0.11-0.31L-0.11-0.31ZM2.29-6.54L2.29-6.54L1.61-3.85L2.23-3.88L2.23-3.88Q2.91-3.91 3.26-4.46L3.26-4.46L3.26-4.46Q3.62-5 3.62-5.92L3.62-5.92L3.62-5.92Q3.62-6.18 3.45-6.35L3.45-6.35L3.45-6.35Q3.28-6.51 3.02-6.52L3.02-6.52L3.02-6.52Q2.77-6.54 2.29-6.54ZM4.97-1.38L4.97-1.38L4.97-1.38Q4.83-0.65 5.24-0.57L5.24-0.57L5.24-0.57Q5.61-0.71 6.15-1.32L6.15-1.32L6.15-1.32Q6.25-1.40 6.35-1.34L6.35-1.34L6.54-1.22L6.54-1.22Q6.67-1.12 6.63-1.00L6.63-1.00L6.63-1.00Q6.44-0.64 5.93-0.23L5.93-0.23L5.93-0.23Q5.42 0.17 5.10 0.11L5.10 0.11L5.10 0.11Q4.39-0.07 4.27-0.63L4.27-0.63L4.27-0.63Q4.13-1.38 4.52-2.70L4.52-2.70L4.52-2.70Q4.91-4.01 5.61-4.68L5.61-4.68L5.61-4.68Q5.85-4.90 6.22-5.01L6.22-5.01L6.22-5.01Q6.58-5.12 6.99-4.95L6.99-4.95L6.99-4.95Q7.39-4.78 7.39-3.97L7.39-3.97L7.39-3.97Q7.38-3.17 6.68-2.45L6.68-2.45L6.68-2.45Q5.98-1.74 4.97-1.38ZM5.09-2.03L5.09-2.03L5.09-2.03Q5.56-2.23 5.90-2.50L5.90-2.50L5.90-2.50Q6.23-2.77 6.45-3.15L6.45-3.15L6.45-3.15Q6.67-3.54 6.67-3.95L6.67-3.95L6.67-3.95Q6.67-4.35 6.43-4.35L6.43-4.35L6.43-4.35Q5.97-4.35 5.63-3.60L5.63-3.60L5.63-3.60Q5.28-2.85 5.09-2.03ZM10.38-4.88L10.38-4.88L10.38-4.88Q10.42-5.11 10.61-5.11L10.61-5.11L10.83-5.12L10.83-5.12Q11.20-5.11 11.10-4.76L11.10-4.76L9.90-0.76L9.90-0.76Q10.21-0.99 10.52-1.42L10.52-1.42L10.52-1.42Q10.63-1.58 10.77-1.49L10.77-1.49L11.02-1.33L11.02-1.33Q11.17-1.22 11.06-1.08L11.06-1.08L11.06-1.08Q10.65-0.60 10.31-0.33L10.31-0.33L10.31-0.33Q9.97-0.07 9.49 0.04L9.49 0.04L9.49 0.04Q9.36 0.06 9.31-0.07L9.31-0.07L9.13-0.62L9.13-0.62Q8.84-0.25 8.64-0.11L8.64-0.11L8.64-0.11Q8.44 0.03 8.33 0.03L8.33 0.03L8.32 0.03L8.32 0.03Q8.23 0.03 8.07-0.09L8.07-0.09L8.07-0.09Q7.91-0.20 7.74-0.39L7.74-0.39L7.74-0.39Q7.58-0.57 7.51-0.79L7.51-0.79L7.51-0.79Q7.44-1.01 7.52-1.59L7.52-1.59L7.52-1.59Q7.60-2.17 7.98-3.21L7.98-3.21L7.98-3.21Q8.35-4.25 8.75-4.66L8.75-4.66L8.75-4.66Q9.15-5.07 9.74-5.06L9.74-5.06L9.74-5.06Q10.07-5.06 10.38-4.88ZM10.22-4.32L10.22-4.32L10.22-4.32Q9.69-4.62 9.36-4.33L9.36-4.33L9.36-4.33Q9.02-4.05 8.70-3.17L8.70-3.17L8.70-3.17Q8.38-2.29 8.29-1.79L8.29-1.79L8.29-1.79Q8.19-1.29 8.21-1.11L8.21-1.11L8.21-1.11Q8.22-0.93 8.38-0.84L8.38-0.84L8.38-0.84Q8.54-0.76 8.92-1.17L8.92-1.17L8.92-1.17Q9.29-1.58 9.57-2.29L9.57-2.29L9.57-2.29Q9.85-3.01 10.22-4.32ZM14.29-4.52L14.29-4.52L14.29-4.52Q14.45-4.35 14.33-4.21L14.33-4.21L14.17-4.02L14.17-4.02Q13.99-3.83 13.86-3.97L13.86-3.97L13.75-4.09L13.75-4.09Q13.39-4.46 13.18-4.41L13.18-4.41L13.18-4.41Q12.82-4.34 12.42-3.64L12.42-3.64L12.42-3.64Q12.02-2.94 11.85-2.19L11.85-2.19L11.85-2.19Q11.67-1.45 11.76-0.95L11.76-0.95L11.76-0.95Q11.78-0.83 11.95-0.73L11.95-0.73L11.95-0.73Q12.11-0.63 12.20-0.65L12.20-0.65L12.20-0.65Q12.50-0.81 12.87-1.25L12.87-1.25L12.87-1.25Q12.98-1.40 13.19-1.27L13.19-1.27L13.34-1.17L13.34-1.17Q13.66-0.98 12.80-0.29L12.80-0.29L12.80-0.29Q12.44 0.02 12.24 0.08L12.24 0.08L12.24 0.08Q12.04 0.13 11.64-0.07L11.64-0.07L11.64-0.07Q11.24-0.28 11.14-0.48L11.14-0.48L11.14-0.48Q10.86-1.09 11.13-2.21L11.13-2.21L11.13-2.21Q11.40-3.34 11.79-3.94L11.79-3.94L11.79-3.94Q12.18-4.53 12.56-4.84L12.56-4.84L12.56-4.84Q12.93-5.15 13.37-5.11L13.37-5.11L13.37-5.11Q13.80-5.07 14.29-4.52ZM16.63-6.62L16.63-6.62L16.24-5.08L16.76-5.08L16.76-5.08Q16.98-5.08 16.91-4.86L16.91-4.86L16.84-4.60L16.84-4.60Q16.77-4.38 16.58-4.38L16.58-4.38L16.06-4.38L15-0.22L15-0.22Q14.94 0 14.70 0L14.70 0L14.51 0L14.51 0Q14.35 0 14.28-0.09L14.28-0.09L14.28-0.09Q14.22-0.18 14.25-0.32L14.25-0.32L15.29-4.38L14.89-4.38L14.89-4.38Q14.69-4.38 14.76-4.62L14.76-4.62L14.84-4.89L14.84-4.89Q14.90-5.08 15.06-5.08L15.06-5.08L15.46-5.08L15.86-6.63L15.86-6.63Q15.92-6.85 16.16-6.85L16.16-6.85L16.41-6.85L16.41-6.85Q16.69-6.85 16.63-6.62ZM21.88-5.08L21.88-5.08L22.26-5.08L22.26-5.08Q22.32-5.08 22.36-5L22.36-5L22.36-5Q22.40-4.92 22.37-4.82L22.37-4.82L20.90 0.50L20.90 0.50Q20.66 1.42 20.11 1.72L20.11 1.72L20.11 1.72Q19.87 1.85 19.79 1.88L19.79 1.88L19.79 1.88Q19.58 1.97 19.20 1.73L19.20 1.73L18.18 1.15L18.18 1.15Q18.05 1.09 18.04 0.97L18.04 0.97L18.04 0.97Q18.03 0.86 18.10 0.79L18.10 0.79L18.25 0.58L18.25 0.58Q18.41 0.41 18.58 0.50L18.58 0.50L19.69 1.18L19.69 1.18Q19.91 1.30 20.02 0.91L20.02 0.91L20.99-2.52L20.76-2.08L20.17-1.09L20.17-1.09Q19.85-0.54 19.52-0.27L19.52-0.27L19.52-0.27Q19.19 0 18.94 0L18.94 0L18.88 0L18.88 0Q18.67 0 18.53-0.15L18.53-0.15L18.53-0.15Q18.18-0.53 18.37-1.22L18.37-1.22L19.39-4.94L19.39-4.94Q19.43-5.08 19.55-5.08L19.55-5.08L20.07-5.08L20.07-5.08Q20.22-5.08 20.15-4.84L20.15-4.84L19.14-1.37L19.14-1.37Q19.06-1.06 19.12-0.98L19.12-0.98L19.12-0.98Q19.23-0.81 19.62-1.40L19.62-1.40L19.62-1.40Q20.02-1.99 21.64-4.94L21.64-4.94L21.64-4.94Q21.72-5.08 21.88-5.08ZM24.03-0.31L25.62-6.55L25.62-6.55Q25.37-6.55 25.27-6.55L25.27-6.55L25.27-6.55Q25.17-6.55 25.11-6.63L25.11-6.63L25.11-6.63Q25.05-6.72 25.08-6.83L25.08-6.83L25.13-7.04L25.13-7.04Q25.15-7.12 25.23-7.18L25.23-7.18L25.23-7.18Q25.30-7.24 25.36-7.24L25.36-7.24L27.06-7.24L27.06-7.24Q27.75-7.24 28.16-6.89L28.16-6.89L28.16-6.89Q28.58-6.55 28.58-5.88L28.58-5.88L28.58-5.88Q28.58-5.21 28.33-4.62L28.33-4.62L28.33-4.62Q27.90-3.61 26.94-3.30L26.94-3.30L27.40-0.34L27.40-0.34Q27.45 0 27.18 0L27.18 0L26.84 0L26.84 0Q26.71 0 26.65-0.08L26.65-0.08L26.65-0.08Q26.59-0.16 26.57-0.35L26.57-0.35L26.19-3.18L25.57-3.17L24.82-0.22L24.82-0.22Q24.76 0 24.52 0L24.52 0L24.23 0L24.23 0Q24.11 0 24.06-0.09L24.06-0.09L24.06-0.09Q24.00-0.18 24.03-0.31L24.03-0.31ZM26.43-6.54L26.43-6.54L25.75-3.85L26.37-3.88L26.37-3.88Q27.05-3.91 27.40-4.46L27.40-4.46L27.40-4.46Q27.76-5 27.76-5.92L27.76-5.92L27.76-5.92Q27.76-6.18 27.59-6.35L27.59-6.35L27.59-6.35Q27.42-6.51 27.17-6.52L27.17-6.52L27.17-6.52Q26.91-6.54 26.43-6.54ZM29.11-1.38L29.11-1.38L29.11-1.38Q28.97-0.65 29.38-0.57L29.38-0.57L29.38-0.57Q29.75-0.71 30.29-1.32L30.29-1.32L30.29-1.32Q30.39-1.40 30.49-1.34L30.49-1.34L30.68-1.22L30.68-1.22Q30.82-1.12 30.77-1.00L30.77-1.00L30.77-1.00Q30.58-0.64 30.07-0.23L30.07-0.23L30.07-0.23Q29.56 0.17 29.24 0.11L29.24 0.11L29.24 0.11Q28.54-0.07 28.41-0.63L28.41-0.63L28.41-0.63Q28.27-1.38 28.66-2.70L28.66-2.70L28.66-2.70Q29.05-4.01 29.75-4.68L29.75-4.68L29.75-4.68Q30.00-4.90 30.36-5.01L30.36-5.01L30.36-5.01Q30.72-5.12 31.13-4.95L31.13-4.95L31.13-4.95Q31.53-4.78 31.53-3.97L31.53-3.97L31.53-3.97Q31.52-3.17 30.82-2.45L30.82-2.45L30.82-2.45Q30.12-1.74 29.11-1.38ZM29.23-2.03L29.23-2.03L29.23-2.03Q29.70-2.23 30.04-2.50L30.04-2.50L30.04-2.50Q30.37-2.77 30.59-3.15L30.59-3.15L30.59-3.15Q30.81-3.54 30.81-3.95L30.81-3.95L30.81-3.95Q30.81-4.35 30.57-4.35L30.57-4.35L30.57-4.35Q30.11-4.35 29.77-3.60L29.77-3.60L29.77-3.60Q29.42-2.85 29.23-2.03ZM34.39-4.32L34.39-4.32L34.39-4.32Q33.89-4.60 33.56-4.36L33.56-4.36L33.56-4.36Q33.22-4.12 32.92-3.30L32.92-3.30L32.92-3.30Q32.61-2.47 32.47-1.85L32.47-1.85L32.47-1.85Q32.33-1.22 32.43-0.98L32.43-0.98L32.43-0.98Q32.53-0.74 32.76-0.88L32.76-0.88L32.76-0.88Q33.23-1.18 33.61-1.99L33.61-1.99L33.61-1.99Q33.98-2.81 34.39-4.32ZM35.99-7.36L35.99-7.36L34.09-0.76L34.09-0.76Q34.38-0.99 34.69-1.42L34.69-1.42L34.69-1.42Q34.80-1.58 34.94-1.49L34.94-1.49L35.18-1.33L35.18-1.33Q35.34-1.22 35.23-1.08L35.23-1.08L35.23-1.08Q34.82-0.60 34.48-0.33L34.48-0.33L34.48-0.33Q34.13-0.07 33.66 0.04L33.66 0.04L33.66 0.04Q33.52 0.07 33.48-0.07L33.48-0.07L33.29-0.62L33.29-0.62Q33.09-0.34 32.87-0.16L32.87-0.16L32.87-0.16Q32.64 0.03 32.50 0.03L32.50 0.03L32.48 0.03L32.48 0.03Q32.29 0.03 31.98-0.30L31.98-0.30L31.98-0.30Q31.66-0.63 31.65-1.01L31.65-1.01L31.65-1.01Q31.64-1.79 32.09-3.04L32.09-3.04L32.09-3.04Q32.54-4.29 32.94-4.68L32.94-4.68L32.94-4.68Q33.33-5.07 33.91-5.06L33.91-5.06L33.91-5.06Q34.24-5.06 34.54-4.88L34.54-4.88L35.21-7.37L35.21-7.37Q35.27-7.59 35.51-7.59L35.51-7.59L35.77-7.59L35.77-7.59Q36.06-7.59 35.99-7.36ZM37.49-0.29L38.18-2.62L37.27-1.09L37.27-1.09Q36.95-0.54 36.62-0.27L36.62-0.27L36.62-0.27Q36.29 0 36.04 0L36.04 0L35.98 0L35.98 0Q35.67 0 35.49-0.34L35.49-0.34L35.49-0.34Q35.32-0.68 35.47-1.22L35.47-1.22L36.49-4.94L36.49-4.94Q36.52-5.08 36.65-5.08L36.65-5.08L37.17-5.08L37.17-5.08Q37.32-5.08 37.25-4.84L37.25-4.84L36.24-1.37L36.24-1.37Q36.17-1.06 36.22-0.97L36.22-0.97L36.22-0.97Q36.33-0.81 36.72-1.40L36.72-1.40L36.72-1.40Q37.11-1.99 38.74-4.94L38.74-4.94L38.74-4.94Q38.82-5.08 38.98-5.08L38.98-5.08L39.36-5.08L39.36-5.08Q39.42-5.08 39.46-5L39.46-5L39.46-5Q39.50-4.92 39.47-4.82L39.47-4.82L38.26-0.26L38.26-0.26Q38.21 0 38.06 0L38.06 0L37.65 0L37.65 0Q37.41 0 37.49-0.29L37.49-0.29ZM39.04-0.25L39.04-0.25L39.04-0.25Q40.25-1.72 40.85-2.55L40.85-2.55L40.85-2.55Q40.60-3.60 40.27-4.71L40.27-4.71L40.27-4.71Q40.14-5.08 40.43-5.08L40.43-5.08L40.71-5.08L40.71-5.08Q40.93-5.08 41.00-4.85L41.00-4.85L41.00-4.85Q41.27-3.92 41.45-3.17L41.45-3.17L41.45-3.17Q41.89-3.81 42.56-4.95L42.56-4.95L42.56-4.95Q42.63-5.08 42.83-5.08L42.83-5.08L43.17-5.08L43.17-5.08Q43.44-5.08 43.22-4.72L43.22-4.72L43.22-4.72Q42.68-3.79 41.64-2.37L41.64-2.37L41.64-2.37Q41.87-1.35 42.05-0.21L42.05-0.21L42.05-0.21Q42.08-0.01 41.89 0L41.89 0L41.59 0.03L41.59 0.03Q41.45 0.05 41.40-0.01L41.40-0.01L41.40-0.01Q41.35-0.07 41.30-0.28L41.30-0.28L41.30-0.28Q41.20-0.96 41.04-1.70L41.04-1.70L41.04-1.70Q40.35-0.82 40.13-0.55L40.13-0.55L40.13-0.55Q39.91-0.29 39.87-0.24L39.87-0.24L39.87-0.24Q39.83-0.19 39.82-0.18L39.82-0.18L39.82-0.18Q39.81-0.16 39.78-0.12L39.78-0.12L39.78-0.12Q39.74-0.08 39.71-0.07L39.71-0.07L39.71-0.07Q39.69-0.06 39.65-0.04L39.65-0.04L39.65-0.04Q39.59 0 39.49 0L39.49 0L39.20 0L39.20 0Q39.06 0 39.01-0.09L39.01-0.09L39.01-0.09Q38.97-0.17 39.04-0.25Z" fill="url(#editing-gradient-gradient)"></path></g></g><style>text {
  font-size: 64px;
  font-family: Arial Black;
  dominant-baseline: central;
  text-anchor: middle;
}</style></svg>