<svg width="85.48001708984374px" height="40.4199951171875px" xmlns="http://www.w3.org/2000/svg" viewBox="207.25999145507814 54.79000244140625 85.48001708984374 40.4199951171875" style="background: rgb(38, 130, 252) none repeat scroll 0% 0%;" preserveAspectRatio="xMidYMid"><defs><linearGradient id="editing-gradient-gradient" x1="0" x2="1" y1="0.5" y2="0.5" gradientUnits="objectBoundingBox"><stop offset="0" stop-color="#ffffff"></stop><stop offset="1" stop-color="#ffffff"></stop></linearGradient></defs><g><g transform="translate(226.51953315734863, 80.3439826965332)"><path d="M3.35 0L2.53 0L2.53-6.69L0.07-6.69L0.07-7.40L5.81-7.40L5.81-6.69L3.35-6.69L3.35 0ZM8.53-0.67L10.28-5.42L11.08-5.42L8.20 2.20L7.40 2.20L8.23 0L8 0L5.96-5.42L6.80-5.42L8.53-0.67ZM11.92 2.20L11.92-5.42L12.60-5.42L12.66-4.83L12.71-4.83L12.71-4.83Q12.96-5.14 13.35-5.33L13.35-5.33L13.35-5.33Q13.73-5.51 14.20-5.51L14.20-5.51L14.20-5.51Q14.82-5.51 15.29-5.24L15.29-5.24L15.29-5.24Q15.78-4.97 16.05-4.37L16.05-4.37L16.05-4.37Q16.34-3.77 16.34-2.81L16.34-2.81L16.34-2.81Q16.34-1.35 15.64-0.63L15.64-0.63L15.64-0.63Q14.96 0.10 13.60 0.10L13.60 0.10L13.60 0.10Q13.23 0.10 12.71 0.03L12.71 0.03L12.71 2.20L11.92 2.20ZM13.61-0.56L13.61-0.56Q14.57-0.56 15.05-1.08L15.05-1.08L15.05-1.08Q15.52-1.59 15.52-2.74L15.52-2.74L15.52-2.74Q15.52-3.89 15.13-4.35L15.13-4.35L15.13-4.35Q14.73-4.82 14.02-4.82L14.02-4.82L14.02-4.82Q13.63-4.82 13.29-4.65L13.29-4.65L13.29-4.65Q12.95-4.49 12.71-4.15L12.71-4.15L12.71-0.66L12.71-0.66Q12.91-0.61 13.14-0.59L13.14-0.59L13.14-0.59Q13.38-0.56 13.61-0.56L13.61-0.56ZM21.56-2.69L21.56-2.44L18.09-2.44L18.09-2.44Q18.11-1.76 18.31-1.34L18.31-1.34L18.31-1.34Q18.52-0.93 18.92-0.74L18.92-0.74L18.92-0.74Q19.32-0.56 19.94-0.56L19.94-0.56L19.94-0.56Q20.53-0.56 21.29-0.78L21.29-0.78L21.29-0.13L21.29-0.13Q20.55 0.10 19.84 0.10L19.84 0.10L19.84 0.10Q18.55 0.10 17.91-0.58L17.91-0.58L17.91-0.58Q17.27-1.25 17.27-2.71L17.27-2.71L17.27-2.71Q17.27-4.11 17.85-4.81L17.85-4.81L17.85-4.81Q18.43-5.51 19.47-5.51L19.47-5.51L19.47-5.51Q20.48-5.51 21.02-4.81L21.02-4.81L21.02-4.81Q21.56-4.12 21.56-2.69L21.56-2.69ZM19.46-4.92L19.46-4.92Q18.80-4.92 18.45-4.48L18.45-4.48L18.45-4.48Q18.11-4.03 18.09-3.00L18.09-3.00L20.79-3.00L20.79-3.00Q20.77-4.03 20.44-4.48L20.44-4.48L20.44-4.48Q20.11-4.92 19.46-4.92L19.46-4.92ZM24.26 0.10L24.26 0.10Q23.81 0.10 23.34 0.02L23.34 0.02L23.34 0.02Q22.86-0.06 22.44-0.21L22.44-0.21L22.44-0.91L22.44-0.91Q22.89-0.75 23.36-0.68L23.36-0.68L23.36-0.68Q23.83-0.60 24.27-0.60L24.27-0.60L24.27-0.60Q26.08-0.60 26.08-1.96L26.08-1.96L26.08-1.96Q26.08-2.33 25.93-2.58L25.93-2.58L25.93-2.58Q25.78-2.83 25.47-3.01L25.47-3.01L25.47-3.01Q25.15-3.18 24.60-3.32L24.60-3.32L24.20-3.43L24.20-3.43Q23.25-3.67 22.79-4.16L22.79-4.16L22.79-4.16Q22.32-4.65 22.32-5.44L22.32-5.44L22.32-5.44Q22.32-6.08 22.62-6.54L22.62-6.54L22.62-6.54Q22.92-7.00 23.51-7.25L23.51-7.25L23.51-7.25Q24.09-7.50 24.96-7.50L24.96-7.50L24.96-7.50Q25.39-7.50 25.81-7.44L25.81-7.44L25.81-7.44Q26.23-7.38 26.57-7.27L26.57-7.27L26.57-6.57L26.57-6.57Q25.82-6.80 24.98-6.80L24.98-6.80L24.98-6.80Q24.05-6.80 23.60-6.46L23.60-6.46L23.60-6.46Q23.14-6.13 23.14-5.49L23.14-5.49L23.14-5.49Q23.14-5.13 23.28-4.88L23.28-4.88L23.28-4.88Q23.41-4.63 23.70-4.45L23.70-4.45L23.70-4.45Q24-4.28 24.51-4.15L24.51-4.15L24.91-4.04L24.91-4.04Q25.94-3.79 26.42-3.29L26.42-3.29L26.42-3.29Q26.90-2.81 26.90-2.00L26.90-2.00L26.90-2.00Q26.90-1.34 26.59-0.87L26.59-0.87L26.59-0.87Q26.28-0.40 25.69-0.15L25.69-0.15L25.69-0.15Q25.10 0.10 24.26 0.10L24.26 0.10ZM30.14 0.10L30.14 0.10Q28.96 0.10 28.35-0.58L28.35-0.58L28.35-0.58Q27.74-1.27 27.74-2.71L27.74-2.71L27.74-2.71Q27.74-4.16 28.40-4.83L28.40-4.83L28.40-4.83Q29.05-5.51 30.34-5.51L30.34-5.51L30.34-5.51Q30.95-5.51 31.45-5.37L31.45-5.37L31.45-4.69L31.45-4.69Q30.92-4.83 30.43-4.83L30.43-4.83L30.43-4.83Q29.79-4.83 29.38-4.62L29.38-4.62L29.38-4.62Q28.98-4.42 28.77-3.96L28.77-3.96L28.77-3.96Q28.57-3.50 28.57-2.73L28.57-2.73L28.57-2.73Q28.57-1.96 28.76-1.48L28.76-1.48L28.76-1.48Q28.95-1.01 29.31-0.80L29.31-0.80L29.31-0.80Q29.68-0.58 30.25-0.58L30.25-0.58L30.25-0.58Q30.78-0.58 31.45-0.81L31.45-0.81L31.45-0.13L31.45-0.13Q30.82 0.10 30.14 0.10L30.14 0.10ZM32.40 0L32.40-5.42L33.07-5.42L33.13-4.70L33.19-4.70L33.19-4.70Q33.45-5.08 33.88-5.28L33.88-5.28L33.88-5.28Q34.30-5.48 34.77-5.48L34.77-5.48L34.77-5.48Q34.99-5.48 35.20-5.44L35.20-5.44L35.20-4.70L35.20-4.70Q34.99-4.73 34.73-4.73L34.73-4.73L34.73-4.73Q34.31-4.73 33.88-4.53L33.88-4.53L33.88-4.53Q33.45-4.33 33.20-3.97L33.20-3.97L33.20 0L32.40 0ZM36.82 0L36.02 0L36.02-5.42L36.82-5.42L36.82 0ZM36.42-6.60L36.42-6.60Q36.15-6.60 36.01-6.73L36.01-6.73L36.01-6.73Q35.86-6.87 35.86-7.11L35.86-7.11L35.86-7.11Q35.86-7.34 36.01-7.48L36.01-7.48L36.01-7.48Q36.16-7.62 36.42-7.62L36.42-7.62L36.42-7.62Q36.69-7.62 36.83-7.48L36.83-7.48L36.83-7.48Q36.98-7.34 36.98-7.11L36.98-7.11L36.98-7.11Q36.98-6.87 36.83-6.73L36.83-6.73L36.83-6.73Q36.69-6.60 36.42-6.60L36.42-6.60ZM38.34 2.20L38.34-5.42L39.02-5.42L39.07-4.83L39.13-4.83L39.13-4.83Q39.38-5.14 39.77-5.33L39.77-5.33L39.77-5.33Q40.15-5.51 40.62-5.51L40.62-5.51L40.62-5.51Q41.23-5.51 41.71-5.24L41.71-5.24L41.71-5.24Q42.20-4.97 42.48-4.37L42.48-4.37L42.48-4.37Q42.75-3.77 42.75-2.81L42.75-2.81L42.75-2.81Q42.75-1.35 42.06-0.63L42.06-0.63L42.06-0.63Q41.38 0.10 40.02 0.10L40.02 0.10L40.02 0.10Q39.66 0.10 39.13 0.03L39.13 0.03L39.13 2.20L38.34 2.20ZM40.03-0.56L40.03-0.56Q40.99-0.56 41.47-1.08L41.47-1.08L41.47-1.08Q41.94-1.59 41.94-2.74L41.94-2.74L41.94-2.74Q41.94-3.89 41.55-4.35L41.55-4.35L41.55-4.35Q41.15-4.82 40.43-4.82L40.43-4.82L40.43-4.82Q40.05-4.82 39.71-4.65L39.71-4.65L39.71-4.65Q39.36-4.49 39.13-4.15L39.13-4.15L39.13-0.66L39.13-0.66Q39.32-0.61 39.56-0.59L39.56-0.59L39.56-0.59Q39.80-0.56 40.03-0.56L40.03-0.56ZM46.23-0.60L46.23-0.60Q46.51-0.60 46.89-0.68L46.89-0.68L46.89-0.01L46.89-0.01Q46.47 0.10 46.05 0.10L46.05 0.10L46.05 0.10Q44.30 0.10 44.30-1.71L44.30-1.71L44.30-4.76L43.27-4.76L43.27-5.42L44.30-5.42L44.43-7.40L45.10-7.40L45.10-5.42L46.80-5.42L46.80-4.76L45.10-4.76L45.10-1.83L45.10-1.83Q45.10-1.17 45.37-0.88L45.37-0.88L45.37-0.88Q45.65-0.60 46.23-0.60L46.23-0.60Z" fill="url(#editing-gradient-gradient)"></path></g></g><style>text {
  font-size: 64px;
  font-family: Arial Black;
  dominant-baseline: central;
  text-anchor: middle;
}</style></svg>